<?xml version="1.0" encoding="UTF-8"?>
<svg id="_圖層_1" data-name="圖層 1" xmlns="http://www.w3.org/2000/svg" viewBox="0 0 544.97 185.91">
  <defs>
    
  </defs>
  <path class="cls-1" d="M71.64,149.91c.49-.59,1.11-1.1,1.85-1.46.15-.07,15.17-7.67,27.18-26.92,7.34-11.76,8.33-28.7,8.34-28.87.09-1.64.88-3.16,2.18-4.16,1.3-1,2.96-1.4,4.57-1.07,4.27.87,41.99,8.99,50.33,27.09,2.59,5.62,2.24,11.68-1.01,17.53-3.28,5.9-8.14,9.8-14.45,11.59-15.15,4.29-33.39-5.82-34.16-6.26-2.72-1.53-3.68-4.97-2.15-7.69,1.53-2.72,4.97-3.68,7.69-2.15,4.12,2.3,16.78,7.74,25.58,5.23,3.35-.95,5.85-2.98,7.64-6.2,1.94-3.49,1.35-5.75.63-7.33-3.89-8.46-22.35-15.72-36.3-19.35-1.05,7.03-3.53,18.35-9.31,27.6-10.87,17.43-23.83,26.42-29.23,29.65,12.12,8,26.63,12.67,42.21,12.67,42.38,0,76.87-34.48,76.87-76.87,0-9.08-1.59-17.79-4.49-25.88-.08.22-.15.44-.24.65-1.76,4.25-5.02,7.42-9.43,9.17-6.69,2.67-14.7,2.08-21.27.72l2.74,4.86c1.37,2.43.51,5.52-1.92,6.89-.78.44-1.64.65-2.48.65-1.77,0-3.48-.92-4.41-2.57l-8.95-15.86c-1.06-1.89-.81-4.24.64-5.86,1.45-1.62,3.76-2.13,5.75-1.28,4.56,1.93,18.15,6.24,26.15,3.06,1.89-.75,3.1-1.91,3.83-3.64,2.14-5.12-.46-13.48-1.64-16.27-.22-.53-.33-1.07-.37-1.61-14.07-18.17-36.08-29.9-60.78-29.9-27.45,0-51.58,14.48-65.18,36.18-.97,6.59-1.5,15.61-.01,19.14,2.19,5.19,10.49,4.63,15.46,3.78-.72-4.75-.54-8.63-.48-9.44.18-2.79,2.57-4.9,5.37-4.72,2.79.18,4.9,2.58,4.72,5.37-.2,3.37.22,13.07,4.56,17.48,1.66,1.68,3.73,2.39,6.54,2.28,3.63-.16,5-1.51,5.71-2.52,3.03-4.27,1.28-13.38.43-16.23-.8-2.67.72-5.49,3.39-6.29,2.67-.8,5.49.7,6.29,3.37.49,1.6,4.57,15.93-1.85,24.99-2.06,2.91-6.08,6.46-13.52,6.79-.34.02-.68.02-1.01.02-5.22,0-9.77-1.84-13.21-5.34-1.71-1.75-3.02-3.79-4.05-5.93-2.62.54-5.52.92-8.48.92-7.74,0-15.75-2.46-19.17-10.59-.07-.16-.12-.35-.19-.52-1.41,5.82-2.18,11.88-2.18,18.12,0,22.56,9.77,42.88,25.3,56.95ZM128.99,109.24c2.56,0,4.65,2.08,4.65,4.65s-2.08,4.65-4.65,4.65-4.65-2.08-4.65-4.65,2.08-4.65,4.65-4.65ZM136.96,71.48c2.43-1.37,5.52-.51,6.89,1.92l7.11,12.6c1.37,2.43.51,5.52-1.92,6.89-.78.44-1.64.65-2.48.65-1.77,0-3.48-.93-4.41-2.57l-7.11-12.6c-1.37-2.43-.51-5.52,1.92-6.89Z"></path>
  <g>
    <g>
      <path class="cls-1" d="M282.73,65.04c-4.69-.06-9.5-.06-14.31-.06.62.31,1,.81,1,1.5v3.5c2.87,0,5.5.06,7.5.06,5.44.06,6.06,2.25,6.06,7.31,0,4.12-.19,7-6.5,7.06-3.19.06-7.75.06-12.68.06-6.75,0-14.24,0-19.93-.06-.75,10.56-3.81,22.43-8.5,22.43-1.62,0-3.06-1.31-3.06-3,0-.69.25-1.44.81-2.12,4.62-5.56,5.37-17.62,5.37-26.3,0-3.87-.12-7.06-.19-8.75v-.25c0-4.06,2.69-6.31,6.68-6.37s8.37-.06,12.87-.06v-3.5c0-2.06,1.62-3.06,3.25-3.06s3.25,1,3.25,3.06v3.5c6.18,0,12.43,0,18.37.06,1.62,0,2.44,1.25,2.44,2.5s-.81,2.5-2.37,2.5h-.06ZM253.12,95.15v6.25c2.69-.62,5.12-1.31,7.12-1.94.31-.12.56-.12.81-.12,1.44,0,2.37,1.19,2.37,2.44,0,1.06-.62,2.12-2.19,2.62-8.31,2.81-16.99,4.31-17.87,4.31-1.87,0-2.81-1.37-2.81-2.75s.81-2.56,2.44-2.75c1.56-.19,3.19-.44,4.69-.69v-14.81c0-1.87,1.37-2.81,2.75-2.81s2.69.94,2.69,2.81v2.44h7.31c1.69,0,2.56,1.25,2.56,2.5s-.87,2.5-2.56,2.5h-7.31ZM251.93,66.48c0-.62.38-1.12.94-1.44-2.06,0-4.06.06-6,.06-2.06,0-2.75.87-2.75,2.44v.25l.06,2.25c2.31,0,4.94-.06,7.75-.06v-3.5ZM251.93,74.47h-7.68c0,1.62-.06,3.5-.12,5.44,2.19,0,4.87.06,7.81.12v-5.56ZM264.18,66.48c0-.69.38-1.19,1-1.5h-8.87c.56.31.94.81.94,1.5v3.5h6.93v-3.5ZM264.18,74.47h-6.93v5.62h6.93v-5.62ZM269.8,100.4c0,2.5,1.19,2.87,4.75,2.87,4.31,0,6.18-1.12,6.18-4.62,0-1.75,1.25-2.5,2.5-2.5.25,0,3.12,0,3.12,3.12,0,5.31-2.69,9.12-11.99,9.12-4.75,0-10-.56-10-7.18,0-3.75.06-10.37.12-13.74,0-1.87,1.37-2.75,2.69-2.75s2.75.94,2.75,2.69v.06l-.06,4.25c3.31-1,7.06-2.37,9.87-3.75.38-.19.75-.25,1.12-.25,1.5,0,2.69,1.44,2.69,2.87,0,1.06-.56,2.06-1.94,2.62-3.25,1.31-8.06,2.62-11.81,3.37v3.81ZM269.43,80.1c7.06-.19,7.56-.19,7.81-1.62.06-.19.06-.75.06-1.31,0-2.12-.38-2.62-1.94-2.62s-3.62-.06-5.93-.06v5.62Z"></path>
      <path class="cls-1" d="M333.2,63.73v2.44c0,1.69-1.5,2.56-2.94,2.56s-2.75-.81-2.75-2.37v-2.62h-9.62v2.44c0,1.69-1.5,2.56-2.94,2.56s-2.81-.81-2.81-2.37v-2.62h-12.81c-1.87,0-2.81-1.25-2.81-2.44,0-1.31,1-2.62,2.81-2.62l12.81.06v-3.19c0-1.62,1.44-2.44,2.87-2.44s2.87.81,2.87,2.44v3.19h9.62v-3.19c0-1.62,1.44-2.44,2.87-2.44s2.81.81,2.81,2.44v3.19l13.31-.06c1.81,0,2.75,1.25,2.75,2.5,0,1.31-.94,2.56-2.75,2.56h-13.31ZM325.77,94.21v12.43c0,1.69-1.5,2.56-3,2.56s-2.94-.87-2.94-2.56v-12.43l-20.43.12c-1.87,0-2.81-1.37-2.81-2.69s.94-2.75,2.81-2.75l20.43.12.06-14.43-15.8.12c-1.94,0-2.87-1.31-2.87-2.62s.94-2.56,2.87-2.56l19.05.12,19.18-.12c1.75,0,2.62,1.31,2.62,2.56,0,1.31-.87,2.62-2.62,2.62l-16.62-.12.06,14.43,21.18-.12c1.75,0,2.62,1.37,2.62,2.69s-.87,2.75-2.62,2.75l-21.18-.12ZM304.09,87.59c-1.75,0-2.81-1.44-2.81-2.81,0-.94.56-1.87,1.75-2.31,3.87-1.37,6.68-3.06,9.81-5.81.44-.37.94-.56,1.37-.56,1.25,0,2.44,1.31,2.44,2.69,0,.62-.25,1.25-.81,1.81-3.87,3.69-9.87,7-11.74,7ZM338.58,86.22c-2.25-2.31-5.56-4.31-8.37-5.31-1.19-.44-1.69-1.31-1.69-2.19,0-1.25,1-2.5,2.56-2.5,1.87,0,12.24,4.19,12.24,7.93,0,1.56-1.31,2.94-2.81,2.94-.62,0-1.31-.25-1.94-.87Z"></path>
      <path class="cls-1" d="M373.12,106.77c0,1.69-1.44,2.56-2.87,2.56s-2.94-.88-2.94-2.56v-.06l.25-20.43c-3.19,2.75-6.12,4.69-7.56,4.69-1.69,0-3-1.37-3-2.87,0-.94.5-1.87,1.62-2.56,10.56-6.18,14.68-15.12,14.68-15.87,0-.62-.81-.69-1.25-.69h-1c-3.37,0-5.62.25-9.12.31h-.06c-1.69,0-2.56-1.37-2.56-2.69s.81-2.62,2.5-2.62c1.75-.06,3.62-.06,5.5-.12l-.06-7c0-1.87,1.44-2.81,2.94-2.81s2.94.94,2.94,2.81l-.06,6.93h1.94c3.31.06,4.87,1.75,4.87,4.06,0,.5-.06,4-6.06,11.74.12,0,.31-.06.5-.06,1.19,0,7.81,3.06,7.81,6.18,0,1.62-1.31,3.06-2.62,3.06-.62,0-1.25-.25-1.81-1-1.31-1.75-3.25-3.25-4.81-4.06.06,9.81.25,22.99.25,22.99v.06ZM377.24,109.21c-2.06,0-3.06-1.5-3.06-3,0-1.25.75-2.44,2.19-2.62,7.5-1,11.56-5.81,12.87-10.81.38-1.56,1.5-2.19,2.62-2.19,1.44,0,3,1.12,3,2.81,0,.25-.06.56-.12.81-3.19,12.06-14.74,14.99-17.49,14.99ZM408.85,97.09c0-1.75,1.25-2.5,2.56-2.5s3,.69,3,3.06c0,6.81-1.62,10.5-9.81,10.5-6.5,0-7.56-3.12-7.56-7.18,0-3.62.06-7.37.19-10.87-2.25,0-4.37-.06-6.43-.12-4.31-.12-6.43-2.56-6.5-6-.06-3.81-.12-8-.12-12.18,0-3.44.06-6.93.12-10.37.06-2.75,1.81-5.56,6.56-5.81,1.81-.12,3.81-.12,5.81-.12s4.06,0,5.93.12c4.12.19,6.5,2.81,6.62,5.75.12,3.62.19,7.43.19,11.31s-.06,7.62-.19,11.24c-.12,3.12-2.5,5.75-6.25,6.06-.12,3.87-.25,7.37-.25,10.37,0,1.62.56,2.37,2.5,2.37,2.5,0,3.62-.25,3.62-4.94v-.69ZM403.66,62.85c0-2.62-.87-2.62-7.25-2.62-4.94,0-6.62,0-6.62,2.69l-.06,2.5h13.99l-.06-2.56ZM403.79,70.1h-14.06v5h14.06v-5ZM389.73,79.78c0,1,.06,2.06.06,3.06.12,2.56,1.5,2.62,6.18,2.62,7,0,7.62-.12,7.68-2.69,0-1,.06-2,.06-3h-13.99Z"></path>
      <path class="cls-1" d="M449.08,99.96h-5.06c.62.5,1,1.31,1,2.06,0,2.69-6.93,7.56-21.18,7.56-1.81,0-2.81-1.37-2.81-2.75s.87-2.56,2.62-2.56c10.99-.06,15.37-3,16.74-4.37l-2.75-.06c-4.12-.06-6.18-1.5-6.37-4.62-.06-1.69-.12-3.62-.12-5.56s.06-3.81.12-5.31c.19-2.44,1.69-4.37,6.25-4.44,2.5-.06,5.06-.06,7.62-.06,4.12,0,8.37.06,12.99.12,3.69.06,5.81,1.94,6,4.12.12,1.62.19,3.56.19,5.56s-.06,3.87-.19,5.56c-.25,2.87-2.31,4.62-6.25,4.69-.94,0-1.94.06-2.87.06-.06.56-.06,1.19-.06,1.94.12,2.25,2.44,2.37,5.62,2.37,6.75,0,7.68-1.87,7.68-4.12,0-1.87,1.44-2.75,2.94-2.75,1.75,0,3.31,1.19,3.31,3,0,8.56-9.5,8.62-13.93,8.62-6.31,0-11.49-.31-11.49-5.81v-3.25ZM463.51,71.66h-5.68c-1.44,0-2.12-.94-2.12-1.94,0-.94.69-1.87,2.12-1.87h6l.19-2.12h-6.18c-1.44,0-2.12-1-2.12-1.94,0-1,.69-1.94,2.12-1.94h6.43v-.75c0-1.75-1.44-1.81-2.69-1.81-1.37,0-3.19.06-4.5.12h-.12c-1.44,0-2.19-1-2.19-2.06,0-1.12.81-2.19,2.37-2.25,1-.06,2.31-.06,3.56-.06s2.44,0,3.19.06c3.44.12,5.75,2,5.75,5.25,0,2.06-.5,7.93-.94,13.93,4.75,1.12,4.94,3.62,4.94,7.5,0,2.25-.12,4.69-3.25,4.69-1.5,0-3-.87-3-2.62v-2.62c0-2.31-.19-3.12-3.37-3.19-5-.06-11.74-.12-18.3-.12-5.31,0-10.5.06-14.31.12-3.37.06-3.56.94-3.62,2.37v3.19c0,1.81-1.5,2.81-3,2.81-2.81,0-3-2.25-3-4.87,0-3.12.06-6.62,5.12-7.43-.25-5-.56-10.25-.56-13.18,0-2.37,1.06-4.31,3.87-5.06,1.75-.5,4.94-1.44,6.25-2.06.5-.25,1-.31,1.44-.31,1.62,0,2.81,1.31,2.81,2.62,0,.87-.56,1.75-1.87,2.19-1.44.5-4.25,1.31-5.87,1.62-.94.19-1.25.81-1.25,1.75h6.18c1.37,0,2.06.94,2.06,1.94,0,.94-.69,1.94-2.06,1.94h-6.06l.06,2.19h6c1.37,0,2.06.94,2.06,1.94,0,.94-.69,1.94-2.06,1.94h-5.81l.12,2.31c2.94,0,6.06-.06,9.18-.06-.5-.38-.81-.94-.81-1.5,0-.75.44-1.44,1.5-1.81,1.19-.44,2.25-.94,3.25-1.62-2.06-1.19-2.37-1.37-2.37-2.25,0-1,.87-1.94,2.12-1.94.81,0,1.94.62,3.44,1.5.62-.69,1.25-1.44,1.75-2.12.19-.25.44-.44.69-.56-.44-.06-.94-.31-1.31-.75-.38-.44-.75-.87-1.25-1.25-1.12.94-4.31,3.5-5.93,3.5-1.25,0-2.12-1-2.12-1.94,0-.69.38-1.37,1.31-1.75,1.19-.5,2.37-1.25,3.44-2.12-1.62-.81-2.56-1.31-2.56-2.31s.87-1.94,2.12-1.94c.69,0,1.5.38,3.37,1.44.75-.87,1.44-1.75,1.94-2.56.37-.62.94-.87,1.56-.87,1.12,0,2.31.94,2.31,2.12,0,.81-1.5,2.62-2.37,3.56,2,1.56,2,2.12,2,2.56,0,.87-.69,1.75-1.5,2.12,1.06.12,2.12,1.12,2.12,2.19,0,.19,0,.87-2.06,2.94,1.62,1.44,1.87,1.87,1.87,2.5,0,1.19-1.12,2.31-2.31,2.31-.5,0-1.06-.25-1.5-.75-.38-.44-.81-.81-1.31-1.25-1.37,1.06-2.87,1.94-4.37,2.56,6.43,0,13.06,0,18.99.06l.12-2.25ZM458.95,88.78h-22.68v2.12h22.68v-2.12ZM458.82,85.47c-.12-1.87-.31-1.87-13.24-1.87-2.25,0-4.5,0-6.62.06-1.81.06-2.5.81-2.56,1.81v.25h22.43v-.25ZM458.82,93.96h-22.43v.31c.06,1.94.38,1.94,11.24,1.94,2.94,0,5.93,0,8.75-.06,1.5-.06,2.37-.44,2.44-1.87v-.31Z"></path>
    </g>
    <g>
      <path class="cls-1" d="M237.64,132.85c0-1.42.97-2.59,2.14-2.59s2.14,1.17,2.14,2.59v17.09h5.17c1.11,0,2,1.07,2,2.42s-.89,2.42-2,2.42h-7.32c-1.17,0-2.14-1.17-2.14-2.59v-19.34Z"></path>
      <path class="cls-1" d="M255.67,145.49v-12.64c0-1.42.97-2.59,2.14-2.59s2.14,1.17,2.14,2.59v12.98c0,2.97,1.51,4.45,3.4,4.45s3.46-1.48,3.46-4.45v-12.98c0-1.42.97-2.59,2.14-2.59s2.14,1.17,2.14,2.59v12.64c0,5.87-3.4,9.63-7.75,9.63s-7.69-3.76-7.69-9.63Z"></path>
      <path class="cls-1" d="M280.26,133.2c0-1.42.97-2.59,2.14-2.59h4.8c3.89,0,6.57,3.42,6.57,7.6s-2.69,7.6-6.57,7.6h-.09c-1.11,0-2-1.07-2-2.42s.89-2.42,2-2.42c1.23-.03,2.23-1.24,2.23-2.76s-1.03-2.76-2.29-2.76h-2.51v17.09c0,1.42-.97,2.59-2.14,2.59s-2.14-1.17-2.14-2.59v-19.34Z"></path>
      <path class="cls-1" d="M301.78,132.85c0-1.42.97-2.59,2.14-2.59s2.14,1.17,2.14,2.59v19.68c0,1.42-.97,2.59-2.14,2.59s-2.14-1.17-2.14-2.59v-19.68Z"></path>
      <path class="cls-1" d="M315.22,132.99c0-1.52.97-2.73,2.23-2.73.71,0,1.37.41,1.71.93l7.92,11.43v-9.77c0-1.42.97-2.59,2.14-2.59s2.14,1.17,2.14,2.59v19.68c0,1.42-.97,2.59-2.14,2.59s-2.14-1.17-2.14-2.59v-1.86l-7.57-10.91v12.78c0,1.42-.97,2.59-2.14,2.59s-2.14-1.17-2.14-2.59v-19.54Z"></path>
      <path class="cls-1" d="M353.81,132.85c0-1.42.97-2.59,2.14-2.59s2.14,1.17,2.14,2.59v13.05l10.26-14.78c.37-.55,1-.86,1.54-.86,1.11,0,2,1.07,2,2.42,0,.52-.09,1-.46,1.55l-13.78,19.86c-.51.76-1.14,1.04-1.71,1.04-1.17,0-2.14-1.17-2.14-2.59v-19.68Z"></path>
      <path class="cls-1" d="M379.62,132.85c0-1.42.97-2.59,2.14-2.59s2.14,1.17,2.14,2.59v19.68c0,1.42-.97,2.59-2.14,2.59s-2.14-1.17-2.14-2.59v-19.68Z"></path>
      <path class="cls-1" d="M392.49,149.6c0-1.42.97-2.59,2.14-2.59.86,0,1.37.55,1.74,1.17.57.93,1,2.11,2.54,2.11,1.29,0,2.29-1.21,2.29-2.76s-1.2-2.18-2.69-2.76l-1.46-.59c-2.17-.86-4.43-2.49-4.43-7.04,0-3.9,2.77-6.87,6.29-6.87,3.77,0,6.12,3.31,6.12,5.15,0,1.42-.97,2.59-2.14,2.59-.83,0-1.26-.48-1.66-1.07-.54-.83-1-1.83-2.31-1.83-1.11,0-2,1.07-2,2.38,0,1.42,1.09,2.11,2.26,2.56l1.23.48c2.4.93,5.09,2.35,5.09,7.35,0,4.14-2.89,7.25-6.57,7.25s-6.43-3.38-6.43-5.52Z"></path>
      <path class="cls-1" d="M414.07,145.49v-12.64c0-1.42.97-2.59,2.14-2.59s2.14,1.17,2.14,2.59v12.98c0,2.97,1.51,4.45,3.4,4.45s3.46-1.48,3.46-4.45v-12.98c0-1.42.97-2.59,2.14-2.59s2.14,1.17,2.14,2.59v12.64c0,5.87-3.4,9.63-7.75,9.63s-7.69-3.76-7.69-9.63Z"></path>
      <path class="cls-1" d="M449.74,131.3c.51-.76,1.14-1.04,1.71-1.04,1.17,0,2.14,1.17,2.14,2.59v19.68c0,1.42-.97,2.59-2.14,2.59s-2.14-1.17-2.14-2.59v-1.9h-2.63c-1.11,0-2-1.07-2-2.42s.89-2.42,2-2.42h2.63v-6.32l-10.26,14.78c-.34.48-1,.86-1.54.86-1.11,0-2-1.07-2-2.42,0-.52.09-1,.46-1.55l13.78-19.86Z"></path>
      <path class="cls-1" d="M462.75,132.85c0-1.42.97-2.59,2.14-2.59s2.14,1.17,2.14,2.59v17.09h5.17c1.11,0,2,1.07,2,2.42s-.89,2.42-2,2.42h-7.32c-1.17,0-2.14-1.17-2.14-2.59v-19.34Z"></path>
    </g>
  </g>
</svg>