<?xml version="1.0" encoding="UTF-8"?>
<svg id="_圖層_1" data-name="圖層 1" xmlns="http://www.w3.org/2000/svg" viewBox="0 0 258.3 269.55">
  <defs>
    
  </defs>
  <g>
    <circle class="cls-1" cx="141.32" cy="126.3" r="6.26"></circle>
    <path class="cls-1" d="M49.8,203.17c-3.14,0-6.16-1.75-7.62-4.77-2.04-4.2-.3-9.26,3.89-11.31h0c.07-.03,6.69-3.34,15.82-10.77,8.38-6.82,20.67-18.63,31.6-36.15,12.84-20.59,14.57-50.14,14.59-50.44.13-2.46,1.33-4.74,3.28-6.25,1.95-1.51,4.45-2.09,6.87-1.61,7.31,1.48,71.84,15.38,85.98,46.06,4.29,9.32,3.71,19.39-1.7,29.12-5.49,9.88-13.63,16.41-24.18,19.4-25.64,7.26-56.69-9.95-58-10.69-4.08-2.29-5.53-7.46-3.23-11.54,2.29-4.08,7.46-5.52,11.54-3.23.06.03,6.88,3.82,16.1,6.79,11.45,3.68,21.48,4.5,29.01,2.36,6.12-1.74,10.68-5.44,13.94-11.31,2.79-5.02,3.15-9.4,1.12-13.79-7.03-15.27-40.37-28.22-64.85-34.45-1.66,11.87-5.84,32.12-16.09,48.56-23.66,37.94-53.12,52.58-54.36,53.18-1.19.58-2.46.86-3.7.86Z"></path>
    <path class="cls-1" d="M35.47,77.73c-16.06,0-27.59-6.39-32.51-18.04C.22,53.17-.61,43.43.44,29.91c.73-9.35,2.11-17.02,2.17-17.34.84-4.6,5.25-7.65,9.85-6.82,4.6.84,7.66,5.25,6.82,9.85h0c-2.06,11.38-3.64,30.54-.7,37.5.8,1.91,3.25,7.69,16.86,7.69h.18c8.54-.03,16.45-2.42,16.53-2.44,4.47-1.36,9.21,1.14,10.58,5.61,1.38,4.47-1.12,9.2-5.58,10.58-.41.13-10.07,3.08-21.04,3.2-.21,0-.42,0-.63,0Z"></path>
    <path class="cls-1" d="M80.25,95.67c-8.94,0-16.73-3.14-22.62-9.14-6.23-6.36-10.25-15.67-11.96-27.7-1.2-8.45-.78-15.3-.76-15.58.3-4.67,4.32-8.21,9-7.91,4.67.3,8.2,4.32,7.91,8.99-.35,5.85.38,22.69,7.93,30.36,2.91,2.96,6.56,4.23,11.48,4.02,6.38-.28,8.79-2.67,10.05-4.45,5.3-7.45,2.26-23.28.78-28.24-1.34-4.48,1.2-9.2,5.67-10.55,4.47-1.34,9.19,1.17,10.55,5.65.84,2.75,7.85,27.37-3.16,42.91-3.53,4.98-10.4,11.04-23.14,11.6-.58.03-1.16.04-1.73.04Z"></path>
    <path class="cls-1" d="M171.63,90.93c-2.96,0-5.83-1.55-7.39-4.31l-12.27-21.76c-2.3-4.08-.86-9.24,3.22-11.54,4.08-2.3,9.24-.86,11.54,3.22l12.27,21.76c2.3,4.08.86,9.24-3.22,11.54-1.31.74-2.74,1.09-4.15,1.09Z"></path>
    <path class="cls-1" d="M199.98,84.86c-2.96,0-5.83-1.55-7.39-4.31l-15.44-27.38c-1.78-3.16-1.35-7.11,1.07-9.81,2.42-2.71,6.3-3.57,9.64-2.14,7.89,3.34,31.43,10.82,45.32,5.28,3.32-1.33,5.47-3.37,6.74-6.42,3.72-8.91-.78-23.44-2.83-28.28-1.82-4.3.18-9.28,4.48-11.11,4.3-1.83,9.27.16,11.1,4.46,1.04,2.44,9.99,24.33,2.91,41.4-3.02,7.26-8.59,12.69-16.13,15.69-9.73,3.88-22.23,4.23-37.15,1.05l5.04,8.95c2.3,4.08.86,9.24-3.22,11.54-1.31.74-2.74,1.09-4.15,1.09Z"></path>
  </g>
  <g>
    <path d="M28.46,225.19c0-2.82,1.94-5.16,4.27-5.16s4.27,2.34,4.27,5.16v26l20.44-29.43c.74-1.1,1.99-1.72,3.07-1.72,2.22,0,3.99,2.13,3.99,4.81,0,1.03-.17,1.99-.91,3.09l-27.45,39.54c-1.02,1.51-2.28,2.06-3.42,2.06-2.33,0-4.27-2.34-4.27-5.16v-39.2Z"></path>
    <path d="M72.75,225.19c0-2.82,1.94-5.16,4.27-5.16s4.27,2.34,4.27,5.16v39.2c0,2.82-1.94,5.16-4.27,5.16s-4.27-2.34-4.27-5.16v-39.2Z"></path>
    <path d="M91.26,258.55c0-2.82,1.94-5.16,4.27-5.16,1.71,0,2.73,1.1,3.47,2.34,1.14,1.86,1.99,4.2,5.07,4.2,2.56,0,4.56-2.41,4.56-5.5s-2.39-4.33-5.35-5.5l-2.9-1.17c-4.33-1.72-8.83-4.95-8.83-14.03,0-7.77,5.52-13.69,12.53-13.69,7.52,0,12.19,6.6,12.19,10.25,0,2.82-1.94,5.16-4.27,5.16-1.65,0-2.51-.96-3.3-2.13-1.08-1.65-1.99-3.64-4.61-3.64-2.22,0-3.99,2.13-3.99,4.75,0,2.82,2.16,4.19,4.5,5.09l2.45.96c4.78,1.86,10.14,4.68,10.14,14.65,0,8.25-5.75,14.44-13.1,14.44s-12.81-6.74-12.81-11Z"></path>
    <path d="M127.13,250.36v-25.17c0-2.82,1.94-5.16,4.27-5.16s4.27,2.34,4.27,5.16v25.86c0,5.91,3.02,8.87,6.78,8.87s6.89-2.96,6.89-8.87v-25.86c0-2.82,1.94-5.16,4.27-5.16s4.27,2.34,4.27,5.16v25.17c0,11.69-6.78,19.19-15.43,19.19s-15.32-7.5-15.32-19.19Z"></path>
    <path d="M191.07,222.1c1.03-1.51,2.28-2.06,3.42-2.06,2.33,0,4.27,2.34,4.27,5.16v39.2c0,2.82-1.94,5.16-4.27,5.16s-4.27-2.34-4.27-5.16v-3.78h-5.24c-2.22,0-3.99-2.13-3.99-4.81s1.77-4.81,3.99-4.81h5.24v-12.58l-20.44,29.43c-.68.96-1.99,1.72-3.08,1.72-2.22,0-3.99-2.13-3.99-4.81,0-1.03.17-2,.91-3.09l27.45-39.54Z"></path>
    <path d="M209.86,225.19c0-2.82,1.94-5.16,4.27-5.16s4.27,2.34,4.27,5.16v34.04h10.31c2.22,0,3.99,2.13,3.99,4.81s-1.77,4.81-3.99,4.81h-14.58c-2.33,0-4.27-2.34-4.27-5.16v-38.51Z"></path>
  </g>
</svg>