<?xml version="1.0" encoding="UTF-8"?>
<svg id="_圖層_1" data-name="圖層 1" xmlns="http://www.w3.org/2000/svg" viewBox="0 0 1200 1200">
  <defs>
    
  </defs>
  <rect class="cls-25" x="625.01" y="78" width="551.71" height="185.91"></rect>
  <rect class="cls-11" x="629.17" y="327.56" width="551.71" height="185.91"></rect>
  <rect class="cls-12" x="663.35" y="337.63" width="164.86" height="164.86" rx="82.43" ry="82.43"></rect>
  <g>
    <circle class="cls-10" cx="751.56" cy="440.99" r="3.63"></circle>
    <path class="cls-13" d="M698.54,480.61s16.36-7.96,29.48-28.99c8.23-13.2,9.19-31.56,9.19-31.56,0,0,59.06,11.98,45.51,36.36-11.07,19.93-40.92,3.15-40.92,3.15"></path>
    <path class="cls-14" d="M676.03,375.97s-3.15,17.3-.1,24.51c5.11,12.11,25.42,5.82,25.42,5.82"></path>
    <path class="cls-14" d="M700.61,393.18s-1.67,25.93,16.36,25.13c18.17-.81,10.76-25.26,10.76-25.26"></path>
    <line class="cls-14" x1="762.02" y1="402.98" x2="769.12" y2="415.59"></line>
    <path class="cls-14" d="M785.55,412.07l-8.94-15.86s18.26,7.79,30,3.1c13.96-5.57,4.97-26.59,4.97-26.59"></path>
  </g>
  <g>
    <path class="cls-15" d="M759.95,640.9c.7,1.24,1.99,1.94,3.32,1.94.63,0,1.28-.16,1.87-.49,1.83-1.03,2.48-3.35,1.45-5.19l-5.35-9.49c-1.03-1.83-3.36-2.48-5.19-1.45-1.83,1.03-2.48,3.35-1.45,5.19l5.35,9.49Z"></path>
    <circle class="cls-15" cx="750.04" cy="658.16" r="3.5"></circle>
    <path class="cls-15" d="M745.69,576.14c-36.54,0-66.26,29.72-66.26,66.26s29.72,66.26,66.26,66.26,66.26-29.72,66.26-66.26-29.72-66.26-66.26-66.26ZM689.58,629.14c2.58,6.12,8.61,7.97,14.44,7.97,2.23,0,4.42-.29,6.39-.7.77,1.61,1.76,3.15,3.05,4.47,2.59,2.64,6.01,4.02,9.95,4.02.25,0,.51,0,.76-.02,5.6-.25,8.63-2.92,10.18-5.11,4.83-6.82,1.76-17.61,1.39-18.82-.61-2.01-2.73-3.14-4.74-2.54-2.01.61-3.15,2.73-2.55,4.74.64,2.15,1.96,9.01-.32,12.22-.54.76-1.57,1.77-4.3,1.89-2.11.08-3.67-.45-4.92-1.72-3.26-3.32-3.58-10.62-3.43-13.16.13-2.1-1.46-3.91-3.56-4.04-2.11-.14-3.91,1.46-4.04,3.56-.04.61-.18,3.54.36,7.11-3.74.64-9.99,1.06-11.64-2.85-1.12-2.66-.72-9.45,0-14.42,10.24-16.35,28.41-27.25,49.08-27.25,18.6,0,35.18,8.83,45.77,22.51.03.41.11.82.28,1.21.89,2.1,2.84,8.4,1.23,12.25-.54,1.3-1.46,2.18-2.88,2.74-6.03,2.4-16.26-.85-19.69-2.3-1.5-.64-3.24-.25-4.33.96-1.09,1.21-1.28,2.99-.48,4.41l6.74,11.94c.7,1.24,1.99,1.94,3.32,1.94.63,0,1.28-.16,1.87-.49,1.83-1.03,2.48-3.36,1.45-5.19l-2.06-3.66c4.95,1.02,10.98,1.47,16.01-.54,3.32-1.32,5.77-3.71,7.1-6.91.07-.16.12-.33.18-.49,2.19,6.09,3.38,12.65,3.38,19.49,0,31.92-25.97,57.88-57.88,57.88-11.73,0-22.65-3.52-31.78-9.54,4.07-2.43,13.83-9.21,22.01-22.33,4.35-6.97,6.22-15.49,7.01-20.79,10.51,2.74,24.4,8.2,27.33,14.57.55,1.19.99,2.89-.47,5.52-1.35,2.43-3.23,3.95-5.75,4.67-6.63,1.89-16.16-2.2-19.26-3.94-2.05-1.15-4.64-.43-5.79,1.62-1.15,2.05-.42,4.64,1.62,5.79.58.33,14.32,7.95,25.73,4.71,4.75-1.34,8.41-4.28,10.88-8.73,2.45-4.41,2.71-8.97.76-13.2-6.28-13.63-34.69-19.75-37.9-20.4-1.21-.25-2.47.05-3.45.8-.98.76-1.58,1.9-1.64,3.13,0,.13-.76,12.88-6.28,21.74-9.04,14.5-20.35,20.21-20.46,20.27-.56.27-1.02.65-1.39,1.1-11.69-10.6-19.05-25.9-19.05-42.89,0-4.7.58-9.27,1.64-13.65.05.13.09.27.14.39Z"></path>
  </g>
  <g>
    <text class="cls-4" transform="translate(245.09 651.16)"><tspan x="0" y="0">鹿苹視覺</tspan></text>
    <text class="cls-1" transform="translate(251.81 701.04) scale(.83 1)"><tspan class="cls-22" x="0" y="0">L</tspan><tspan class="cls-18" x="21.78" y="0">UPIN VIS</tspan><tspan class="cls-24" x="213.08" y="0">U</tspan><tspan class="cls-19" x="240.7" y="0">AL</tspan></text>
  </g>
  <g>
    <path class="cls-9" d="M163.08,646.99c.7,1.24,1.99,1.94,3.32,1.94.63,0,1.28-.16,1.87-.49,1.83-1.03,2.48-3.35,1.45-5.19l-5.35-9.49c-1.03-1.83-3.36-2.48-5.19-1.45-1.83,1.03-2.48,3.35-1.45,5.19l5.35,9.49Z"></path>
    <circle class="cls-9" cx="153.18" cy="664.25" r="3.5"></circle>
    <path class="cls-9" d="M148.82,582.23c-36.54,0-66.26,29.72-66.26,66.26s29.72,66.26,66.26,66.26,66.26-29.72,66.26-66.26-29.72-66.26-66.26-66.26ZM92.71,635.23c2.58,6.12,8.61,7.97,14.44,7.97,2.23,0,4.42-.29,6.39-.7.77,1.61,1.76,3.15,3.05,4.47,2.59,2.64,6.01,4.02,9.95,4.02.25,0,.51,0,.76-.02,5.6-.25,8.63-2.92,10.18-5.11,4.83-6.82,1.76-17.61,1.39-18.82-.61-2.01-2.73-3.14-4.74-2.54-2.01.61-3.15,2.73-2.55,4.74.64,2.15,1.96,9.01-.32,12.22-.54.76-1.57,1.77-4.3,1.89-2.11.08-3.67-.45-4.92-1.72-3.26-3.32-3.58-10.62-3.43-13.16.13-2.1-1.46-3.91-3.56-4.04-2.11-.14-3.91,1.46-4.04,3.56-.04.61-.18,3.54.36,7.11-3.74.64-9.99,1.06-11.64-2.85-1.12-2.66-.72-9.45,0-14.42,10.24-16.35,28.41-27.25,49.08-27.25,18.6,0,35.18,8.83,45.77,22.51.03.41.11.82.28,1.21.89,2.1,2.84,8.4,1.23,12.25-.54,1.3-1.46,2.18-2.88,2.74-6.03,2.4-16.26-.85-19.69-2.3-1.5-.64-3.24-.25-4.33.96-1.09,1.21-1.28,2.99-.48,4.41l6.74,11.94c.7,1.24,1.99,1.94,3.32,1.94.63,0,1.28-.16,1.87-.49,1.83-1.03,2.48-3.36,1.45-5.19l-2.06-3.66c4.95,1.02,10.98,1.47,16.01-.54,3.32-1.32,5.77-3.71,7.1-6.91.07-.16.12-.33.18-.49,2.19,6.09,3.38,12.65,3.38,19.49,0,31.92-25.97,57.88-57.88,57.88-11.73,0-22.65-3.52-31.78-9.54,4.07-2.43,13.83-9.21,22.01-22.33,4.35-6.97,6.22-15.49,7.01-20.79,10.51,2.74,24.4,8.2,27.33,14.57.55,1.19.99,2.89-.47,5.52-1.35,2.43-3.23,3.95-5.75,4.67-6.63,1.89-16.16-2.2-19.26-3.94-2.05-1.15-4.64-.43-5.79,1.62-1.15,2.05-.42,4.64,1.62,5.79.58.33,14.32,7.95,25.73,4.71,4.75-1.34,8.41-4.28,10.88-8.73,2.45-4.41,2.71-8.97.76-13.2-6.28-13.63-34.69-19.75-37.9-20.4-1.21-.25-2.47.05-3.45.8-.98.76-1.58,1.9-1.64,3.13,0,.13-.76,12.88-6.28,21.74-9.04,14.5-20.35,20.21-20.46,20.27-.56.27-1.02.65-1.39,1.1-11.69-10.6-19.05-25.9-19.05-42.89,0-4.7.58-9.27,1.64-13.65.05.13.09.27.14.39Z"></path>
  </g>
  <path class="cls-15" d="M690.05,227.91c.49-.59,1.11-1.1,1.85-1.46.15-.07,15.17-7.67,27.18-26.92,7.34-11.76,8.33-28.7,8.34-28.87.09-1.64.88-3.16,2.18-4.16,1.3-1,2.96-1.4,4.57-1.07,4.27.87,41.99,8.99,50.33,27.09,2.59,5.62,2.24,11.68-1.01,17.53-3.28,5.9-8.14,9.8-14.45,11.59-15.15,4.29-33.39-5.82-34.16-6.26-2.72-1.53-3.68-4.97-2.15-7.69,1.53-2.72,4.97-3.68,7.69-2.15,4.12,2.3,16.78,7.74,25.58,5.23,3.35-.95,5.85-2.98,7.64-6.2,1.94-3.49,1.35-5.75.63-7.33-3.89-8.46-22.35-15.72-36.3-19.35-1.05,7.03-3.53,18.35-9.31,27.6-10.87,17.43-23.83,26.42-29.23,29.65,12.12,8,26.63,12.67,42.21,12.67,42.38,0,76.87-34.48,76.87-76.87,0-9.08-1.59-17.79-4.49-25.88-.08.22-.15.44-.24.65-1.76,4.25-5.02,7.42-9.43,9.17-6.69,2.67-14.7,2.08-21.27.72l2.74,4.86c1.37,2.43.51,5.52-1.92,6.89-.78.44-1.64.65-2.48.65-1.77,0-3.48-.92-4.41-2.57l-8.95-15.86c-1.06-1.89-.81-4.24.64-5.86,1.45-1.62,3.76-2.13,5.75-1.28,4.56,1.93,18.15,6.24,26.15,3.06,1.89-.75,3.1-1.91,3.83-3.64,2.14-5.12-.46-13.48-1.64-16.27-.22-.53-.33-1.07-.37-1.61-14.07-18.17-36.08-29.9-60.78-29.9-27.45,0-51.58,14.48-65.18,36.18-.97,6.59-1.5,15.61-.01,19.14,2.19,5.19,10.49,4.63,15.46,3.78-.72-4.75-.54-8.63-.48-9.44.18-2.79,2.57-4.9,5.37-4.72,2.79.18,4.9,2.58,4.72,5.37-.2,3.37.22,13.07,4.56,17.48,1.66,1.68,3.73,2.39,6.54,2.28,3.63-.16,5-1.51,5.71-2.52,3.03-4.27,1.28-13.38.43-16.23-.8-2.67.72-5.49,3.39-6.29,2.67-.8,5.49.7,6.29,3.37.49,1.6,4.57,15.93-1.85,24.99-2.06,2.91-6.08,6.46-13.52,6.79-.34.02-.68.02-1.01.02-5.22,0-9.77-1.84-13.21-5.34-1.71-1.75-3.02-3.79-4.05-5.93-2.62.54-5.52.92-8.48.92-7.74,0-15.75-2.46-19.17-10.59-.07-.16-.12-.35-.19-.52-1.41,5.82-2.18,11.88-2.18,18.12,0,22.56,9.77,42.88,25.3,56.95ZM747.41,187.25c2.56,0,4.65,2.08,4.65,4.65s-2.08,4.65-4.65,4.65-4.65-2.08-4.65-4.65,2.08-4.65,4.65-4.65ZM755.38,149.48c2.43-1.37,5.52-.51,6.89,1.92l7.11,12.6c1.37,2.43.51,5.52-1.92,6.89-.78.44-1.64.65-2.48.65-1.77,0-3.48-.93-4.41-2.57l-7.11-12.6c-1.37-2.43-.51-5.52,1.92-6.89Z"></path>
  <rect x="15.89" y="78" width="551.71" height="185.91"></rect>
  <path class="cls-11" d="M80.93,227.91c.49-.59,1.11-1.1,1.85-1.46.15-.07,15.17-7.67,27.18-26.92,7.34-11.76,8.33-28.7,8.34-28.87.09-1.64.88-3.16,2.18-4.16,1.3-1,2.96-1.4,4.57-1.07,4.27.87,41.99,8.99,50.33,27.09,2.59,5.62,2.24,11.68-1.01,17.53-3.28,5.9-8.14,9.8-14.45,11.59-15.15,4.29-33.39-5.82-34.16-6.26-2.72-1.53-3.68-4.97-2.15-7.69,1.53-2.72,4.97-3.68,7.69-2.15,4.12,2.3,16.78,7.74,25.58,5.23,3.35-.95,5.85-2.98,7.64-6.2,1.94-3.49,1.35-5.75.63-7.33-3.89-8.46-22.35-15.72-36.3-19.35-1.05,7.03-3.53,18.35-9.31,27.6-10.87,17.43-23.83,26.42-29.23,29.65,12.12,8,26.63,12.67,42.21,12.67,42.38,0,76.87-34.48,76.87-76.87,0-9.08-1.59-17.79-4.49-25.88-.08.22-.15.44-.24.65-1.76,4.25-5.02,7.42-9.43,9.17-6.69,2.67-14.7,2.08-21.27.72l2.74,4.86c1.37,2.43.51,5.52-1.92,6.89-.78.44-1.64.65-2.48.65-1.77,0-3.48-.92-4.41-2.57l-8.95-15.86c-1.06-1.89-.81-4.24.64-5.86,1.45-1.62,3.76-2.13,5.75-1.28,4.56,1.93,18.15,6.24,26.15,3.06,1.89-.75,3.1-1.91,3.83-3.64,2.14-5.12-.46-13.48-1.64-16.27-.22-.53-.33-1.07-.37-1.61-14.07-18.17-36.08-29.9-60.78-29.9-27.45,0-51.58,14.48-65.18,36.18-.97,6.59-1.5,15.61-.01,19.14,2.19,5.19,10.49,4.63,15.46,3.78-.72-4.75-.54-8.63-.48-9.44.18-2.79,2.57-4.9,5.37-4.72,2.79.18,4.9,2.58,4.72,5.37-.2,3.37.22,13.07,4.56,17.48,1.66,1.68,3.73,2.39,6.54,2.28,3.63-.16,5-1.51,5.71-2.52,3.03-4.27,1.28-13.38.43-16.23-.8-2.67.72-5.49,3.39-6.29,2.67-.8,5.49.7,6.29,3.37.49,1.6,4.57,15.93-1.85,24.99-2.06,2.91-6.08,6.46-13.52,6.79-.34.02-.68.02-1.01.02-5.22,0-9.77-1.84-13.21-5.34-1.71-1.75-3.02-3.79-4.05-5.93-2.62.54-5.52.92-8.48.92-7.74,0-15.75-2.46-19.17-10.59-.07-.16-.12-.35-.19-.52-1.41,5.82-2.18,11.88-2.18,18.12,0,22.56,9.77,42.88,25.3,56.95ZM138.29,187.25c2.56,0,4.65,2.08,4.65,4.65s-2.08,4.65-4.65,4.65-4.65-2.08-4.65-4.65,2.08-4.65,4.65-4.65ZM146.26,149.48c2.43-1.37,5.52-.51,6.89,1.92l7.11,12.6c1.37,2.43.51,5.52-1.92,6.89-.78.44-1.64.65-2.48.65-1.77,0-3.48-.93-4.41-2.57l-7.11-12.6c-1.37-2.43-.51-5.52,1.92-6.89Z"></path>
  <path class="cls-9" d="M87.53,477.47c.49-.59,1.11-1.1,1.85-1.46.15-.07,15.17-7.67,27.18-26.92,7.34-11.76,8.33-28.7,8.34-28.87.09-1.64.88-3.16,2.18-4.16,1.3-1,2.96-1.4,4.57-1.07,4.27.87,41.99,8.99,50.33,27.09,2.59,5.62,2.24,11.68-1.01,17.53-3.28,5.9-8.14,9.8-14.45,11.59-15.15,4.29-33.39-5.82-34.16-6.26-2.72-1.53-3.68-4.97-2.15-7.69,1.53-2.72,4.97-3.68,7.69-2.15,4.12,2.3,16.78,7.74,25.58,5.23,3.35-.95,5.85-2.98,7.64-6.2,1.94-3.49,1.35-5.75.63-7.33-3.89-8.46-22.35-15.72-36.3-19.35-1.05,7.03-3.53,18.35-9.31,27.6-10.87,17.43-23.83,26.42-29.23,29.65,12.12,8,26.63,12.67,42.21,12.67,42.38,0,76.87-34.48,76.87-76.87,0-9.08-1.59-17.79-4.49-25.88-.08.22-.15.44-.24.65-1.76,4.25-5.02,7.42-9.43,9.17-6.69,2.67-14.7,2.08-21.27.72l2.74,4.86c1.37,2.43.51,5.52-1.92,6.89-.78.44-1.64.65-2.48.65-1.77,0-3.48-.92-4.41-2.57l-8.95-15.86c-1.06-1.89-.81-4.24.64-5.86,1.45-1.62,3.76-2.13,5.75-1.28,4.56,1.93,18.15,6.24,26.15,3.06,1.89-.75,3.1-1.91,3.83-3.64,2.14-5.12-.46-13.48-1.64-16.27-.22-.53-.33-1.07-.37-1.61-14.07-18.17-36.08-29.9-60.78-29.9-27.45,0-51.58,14.48-65.18,36.18-.97,6.59-1.5,15.61-.01,19.14,2.19,5.19,10.49,4.63,15.46,3.78-.72-4.75-.54-8.63-.48-9.44.18-2.79,2.57-4.9,5.37-4.72,2.79.18,4.9,2.58,4.72,5.37-.2,3.37.22,13.07,4.56,17.48,1.66,1.68,3.73,2.39,6.54,2.28,3.63-.16,5-1.51,5.71-2.52,3.03-4.27,1.28-13.38.43-16.23-.8-2.67.72-5.49,3.39-6.29,2.67-.8,5.49.7,6.29,3.37.49,1.6,4.57,15.93-1.85,24.99-2.06,2.91-6.08,6.46-13.52,6.79-.34.02-.68.02-1.01.02-5.22,0-9.77-1.84-13.21-5.34-1.71-1.75-3.02-3.79-4.05-5.93-2.62.54-5.52.92-8.48.92-7.74,0-15.75-2.46-19.17-10.59-.07-.16-.12-.35-.19-.52-1.41,5.82-2.18,11.88-2.18,18.12,0,22.56,9.77,42.88,25.3,56.95ZM144.89,436.8c2.56,0,4.65,2.08,4.65,4.65s-2.08,4.65-4.65,4.65-4.65-2.08-4.65-4.65,2.08-4.65,4.65-4.65ZM152.86,399.04c2.43-1.37,5.52-.51,6.89,1.92l7.11,12.6c1.37,2.43.51,5.52-1.92,6.89-.78.44-1.64.65-2.48.65-1.77,0-3.48-.93-4.41-2.57l-7.11-12.6c-1.37-2.43-.51-5.52,1.92-6.89Z"></path>
  <g>
    <g>
      <circle class="cls-15" cx="782.26" cy="952.19" r="5.77"></circle>
      <path class="cls-17" d="M697.87,1015.25s26.03-12.66,46.91-46.14c13.1-21.01,14.62-50.22,14.62-50.22,0,0,93.98,19.07,72.43,57.86-17.62,31.72-65.11,5.02-65.11,5.02"></path>
      <path class="cls-17" d="M662.05,848.73s-5.01,27.53-.16,39.01c8.14,19.28,40.45,9.26,40.45,9.26"></path>
      <path class="cls-17" d="M701.16,876.12s-2.66,41.27,26.04,39.99c28.92-1.29,17.12-40.19,17.12-40.19"></path>
      <line class="cls-17" x1="798.89" y1="891.71" x2="810.2" y2="911.77"></line>
      <path class="cls-17" d="M836.34,906.17l-14.23-25.24s29.05,12.39,47.75,4.94c22.21-8.86,7.9-42.31,7.9-42.31"></path>
    </g>
    <text class="cls-8" transform="translate(873.36 1001.48) scale(.83 1)"><tspan class="cls-27" x="0" y="0">VIS</tspan><tspan class="cls-30" x="155.89" y="0">U</tspan><tspan class="cls-27" x="216.62" y="0">AL</tspan></text>
  </g>
  <g>
    <circle class="cls-15" cx="301.73" cy="961.38" r="6.26"></circle>
    <path class="cls-16" d="M210.21,1029.77s28.23-13.73,50.88-50.04c14.21-22.79,15.86-54.47,15.86-54.47,0,0,101.93,20.68,78.56,62.76-19.11,34.4-70.62,5.44-70.62,5.44"></path>
    <path class="cls-16" d="M171.36,849.17s-5.43,29.85-.17,42.31c8.83,20.91,43.87,10.05,43.87,10.05"></path>
    <path class="cls-16" d="M213.78,878.87s-2.89,44.76,28.24,43.37c31.37-1.4,18.57-43.59,18.57-43.59"></path>
    <line class="cls-16" x1="319.77" y1="895.78" x2="332.04" y2="917.54"></line>
    <path class="cls-16" d="M360.39,911.47l-15.44-27.38s31.51,13.44,51.79,5.35c24.09-9.61,8.57-45.89,8.57-45.89"></path>
  </g>
  <text class="cls-6" transform="translate(185.46 1103.95) scale(.83 1)"><tspan class="cls-26" x="0" y="0">VIS</tspan><tspan class="cls-29" x="119.17" y="0">U</tspan><tspan class="cls-28" x="165.59" y="0">AL</tspan></text>
  <g>
    <text class="cls-4" transform="translate(245.09 432.46)"><tspan x="0" y="0">鹿苹視覺</tspan></text>
    <text class="cls-1" transform="translate(251.81 482.34) scale(.83 1)"><tspan class="cls-22" x="0" y="0">L</tspan><tspan class="cls-18" x="21.78" y="0">UPIN VIS</tspan><tspan class="cls-24" x="213.08" y="0">U</tspan><tspan class="cls-19" x="240.7" y="0">AL</tspan></text>
  </g>
  <g>
    <text class="cls-3" transform="translate(855.29 432.46)"><tspan x="0" y="0">鹿苹視覺</tspan></text>
    <text class="cls-7" transform="translate(862.02 482.34) scale(.83 1)"><tspan class="cls-21" x="0" y="0">L</tspan><tspan class="cls-20" x="21.79" y="0">UPIN VIS</tspan><tspan class="cls-23" x="213.08" y="0">U</tspan><tspan class="cls-20" x="240.7" y="0">AL</tspan></text>
  </g>
  <g>
    <text class="cls-3" transform="translate(841.28 651.16)"><tspan x="0" y="0">鹿苹視覺</tspan></text>
    <text class="cls-7" transform="translate(848.01 701.04) scale(.83 1)"><tspan class="cls-21" x="0" y="0">L</tspan><tspan class="cls-20" x="21.79" y="0">UPIN VIS</tspan><tspan class="cls-23" x="213.08" y="0">U</tspan><tspan class="cls-20" x="240.7" y="0">AL</tspan></text>
  </g>
  <g>
    <text class="cls-3" transform="translate(848.6 178.68)"><tspan x="0" y="0">鹿苹視覺</tspan></text>
    <text class="cls-7" transform="translate(855.32 228.57) scale(.83 1)"><tspan class="cls-21" x="0" y="0">L</tspan><tspan class="cls-20" x="21.79" y="0">UPIN VIS</tspan><tspan class="cls-23" x="213.08" y="0">U</tspan><tspan class="cls-20" x="240.7" y="0">AL</tspan></text>
  </g>
  <g>
    <text class="cls-2" transform="translate(241.47 178.68)"><tspan x="0" y="0">鹿苹視覺</tspan></text>
    <text class="cls-5" transform="translate(248.19 228.57) scale(.83 1)"><tspan class="cls-22" x="0" y="0">L</tspan><tspan class="cls-18" x="21.78" y="0">UPIN VIS</tspan><tspan class="cls-24" x="213.08" y="0">U</tspan><tspan class="cls-19" x="240.7" y="0">AL</tspan></text>
  </g>
</svg>